<!--?xml version="1.0" encoding="utf-8"?-->
<!-- Svg Vector Icons : http://www.onlinewebfonts.com/icon -->

<svg version="1.1" xmlns="http://www.w3.org/2000/svg" xmlns:xlink="http://www.w3.org/1999/xlink" x="0px" y="0px" viewBox="0 0 256 256" enable-background="new 0 0 256 256" xml:space="preserve">
<metadata> Svg Vector Icons : http://www.onlinewebfonts.com/icon </metadata>
<g> <path fill="#000000" data-title="Layer 0" xs="0" d="M119.1,246c-11.9,0-21.6-9.5-21.7-21.4l-0.1-15.3c-42.6,9.3-51.5-18.1-51.5-18.1c-7-17.7-17-22.4-17-22.4 c-13.9-9.5,1.1-9.3,1.1-9.3c15.4,1.1,23.4,15.8,23.4,15.8C67,198.6,89.1,191.9,97.8,188c1.4-9.9,5.3-16.6,9.7-20.5 c-34-3.9-69.7-17-69.7-75.6c0-16.7,6-30.3,15.8-41.1C52,47,46.8,31.4,55.1,10.4c0,0,12.9-4.1,42.1,15.7c12.5-3.4,25.4-5.1,38.3-5.1 c13,0.1,26.1,1.7,38.3,5.1c29.2-19.8,42-15.7,42-15.7c8.3,21.1,3.1,36.6,1.5,40.5c9.8,10.7,15.7,24.4,15.7,41.1 c0,58.8-35.8,71.7-69.9,75.5c5.5,4.8,10.4,14.1,10.4,28.3c0,20.5-0.1,28.8-0.1,28.8c-0.1,11.9-9.8,21.5-21.6,21.4H119.1L119.1,246z "/></g>
</svg>