<?xml version="1.0" encoding="utf-8"?>
<!-- Svg Vector Icons : http://www.onlinewebfonts.com/icon -->
<!DOCTYPE svg PUBLIC "-//W3C//DTD SVG 1.1//EN" "http://www.w3.org/Graphics/SVG/1.1/DTD/svg11.dtd">
<svg version="1.1" xmlns="http://www.w3.org/2000/svg" xmlns:xlink="http://www.w3.org/1999/xlink" x="0px" y="0px" viewBox="0 0 256 256" enable-background="new 0 0 256 256" xml:space="preserve">
<metadata> Svg Vector Icons : http://www.onlinewebfonts.com/icon </metadata>
<g><g><g><path fill="#FFFFFF" d="M124.3,10.5c-2.3,0.7-6.1,4.7-6.8,7.1c-0.4,1.5-0.6,19.6-0.6,77.9v76l-25.4-25.4c-23.2-23.1-25.7-25.5-27.6-26c-8.7-2.3-16.1,5.1-13.8,13.8c0.5,1.9,3.5,5.1,36.1,37.7c19.6,19.6,36.3,36,37.2,36.4c2.2,1.1,7.1,1.1,9.2,0c0.9-0.5,17.6-16.8,37.2-36.4c32.6-32.6,35.6-35.8,36.1-37.7c1.8-7-2.7-13.7-9.7-14.2c-5.1-0.4-3.9-1.4-31.7,26.3l-25.5,25.4v-76c0-58.3-0.1-76.4-0.6-77.9c-0.7-2.5-4.6-6.4-7.1-7.1C129.1,9.8,126.5,9.8,124.3,10.5z"/><path fill="#FFFFFF" d="M46.6,224.6c-2.5,0.9-5.6,4.1-6.5,6.6c-1.5,4.4-0.6,8,2.8,11.3c1.4,1.5,3,2.5,4.2,2.9c2.8,0.8,159,0.8,161.7,0c4-1.2,7.7-6.3,7.7-10.5c0-4.2-3.7-9.3-7.7-10.5c-1.5-0.4-20.2-0.6-81.1-0.5C59.4,223.9,48.2,224,46.6,224.6z"/></g></g></g>
</svg>