<svg xmlns="http://www.w3.org/2000/svg" xmlns:xlink="http://www.w3.org/1999/xlink" version="1.1" x="0px" y="0px" viewBox="0 0 256 256" enable-background="new 0 0 256 256" xml:space="preserve">
<metadata> Svg Vector Icons : http://www.onlinewebfonts.com/icon </metadata>
<g><g><g><path fill="magenta" d="M129.9,10C102.6,12.5,77,22.7,55.5,39.7c-6.3,5-17.7,16.6-22.3,22.5c-12.1,16-19.4,32.7-22.4,51.2c-1.1,7-1.1,22.1,0,29.1c2.9,18.4,10.3,35.2,22.4,51.2c4.5,6,16,17.5,22.3,22.4c23.3,18.4,50.9,28.8,79.3,29.9c16.9,0.6,31.8-2.5,46.2-9.7c10.4-5.3,17.2-10.2,25.8-18.7c9.8-9.7,17.1-19.8,23.6-32.8c8-16,12.8-32.4,15.1-51.5c0.8-6.6,0.8-25.8,0-32.1c-3-24.3-11.5-44.1-25.4-59.2c-15.9-17.3-36.5-27.4-63-31.1C152,10.2,134.1,9.6,129.9,10z M131.2,28.7c41,3.7,74.5,25.3,90.5,58.3c4.8,9.9,7.4,18.4,9.4,30.5c1.3,8.3,1.4,25.6,0.2,33.6c-1.8,11.5-4.4,20-8.9,29.6c-8.9,18.6-23,32.8-41.3,41.5c-12.1,5.8-23.6,8.5-38.1,9.1c-15.1,0.6-30-2.7-44.8-10c-11.5-5.6-21.4-12.8-31.2-22.6c-10.3-10.3-17.4-20.1-23.7-33C37.9,154.7,35,146,33,134.6c-1-5.6-1.1-23.4-0.2-30.5c5.3-42.1,28.6-67.7,67.6-74.3C109.7,28.3,121.6,27.8,131.2,28.7z"/><path fill="#FFFFFF" d="M108.6,72.8c-15.1,15.4-28.2,28.9-29.2,30l-1.8,1.9l11,6.3c6.1,3.5,11.2,6.3,11.3,6.3s6.1-9,13.3-20c7.2-10.9,13.1-20,13.3-20.2c0.1-0.1,0.1,3.1,0,7.2c-0.7,17.3-3.3,125.9-3,126.1c0.1,0.1,6.1-1.9,13.3-4.6l13.1-4.8l-0.1-2.2c-0.1-1.2-2.6-29.3-5.6-62.3c-3-33-5.4-60.1-5.4-60.1c0-0.1,8.5,8.6,18.7,19.3c10.2,10.7,18.8,19.4,19,19.4c0.2,0,1.8-1.3,3.5-3c2.5-2.3,3-3,2.7-3.6c-0.3-0.4-10.7-14.6-23-31.6c-12.4-17-22.8-31.2-23.1-31.5C136.1,44.9,130.8,50.1,108.6,72.8z"/></g></g></g>
</svg>