<?xml version="1.0" encoding="utf-8"?>
<!-- Svg Vector Icons : http://www.onlinewebfonts.com/icon -->
<!DOCTYPE svg PUBLIC "-//W3C//DTD SVG 1.1//EN" "http://www.w3.org/Graphics/SVG/1.1/DTD/svg11.dtd">
<svg version="1.1" xmlns="http://www.w3.org/2000/svg" xmlns:xlink="http://www.w3.org/1999/xlink" x="0px" y="0px" viewBox="0 0 256 256" enable-background="new 0 0 256 256" xml:space="preserve">
<metadata> Svg Vector Icons : http://www.onlinewebfonts.com/icon </metadata>
<g><g><g><path fill="#FFFFFF75" d="M106.8,11.4c-16.2,2.9-36.1,11.5-49.2,21.3c-24.2,18.1-41.2,45.5-46.3,74.8c-1.8,10.8-1.8,29.8,0.1,40.7c6.2,36.1,29.6,67.9,62.4,84.8c39.6,20.5,88.4,16.6,124.1-9.9c52.6-39,63.7-113,24.9-165.4c-17.9-24.4-45.1-41.2-74.7-46.3C137.6,9.5,117,9.6,106.8,11.4z M152.3,74.4c1.4,0.8,13,11.9,26,24.8c23.1,23.3,23.3,23.5,23.3,27.5c0,2.3-0.6,5.2-1.3,6.6c-2.4,4.3-47,48.1-49.9,48.8c-8.7,2.2-16.7-5.7-14.7-14.5c0.6-2.5,3.8-6.3,12.8-15.4l12.1-12.1h-48c-52,0-52.1,0-56.2-5.2c-2.8-3.6-2.8-10.6-0.1-14.1c4.2-5.4,3.2-5.3,55.8-5.3h48.4L149,104c-6.2-6.3-11.9-12.5-12.5-13.6c-1.9-3.8-1.2-9.3,1.5-12.6C142,73.1,147.3,71.8,152.3,74.4z"/></g></g></g>
</svg>