<!--?xml version="1.0" encoding="utf-8"?-->
<!-- Svg Vector Icons : http://www.onlinewebfonts.com/icon -->

<svg version="1.1" xmlns="http://www.w3.org/2000/svg" xmlns:xlink="http://www.w3.org/1999/xlink" x="0px" y="0px" viewBox="0 0 256 256" enable-background="new 0 0 256 256" xml:space="preserve">
<metadata> Svg Vector Icons : http://www.onlinewebfonts.com/icon </metadata>
<g><g><path fill="#0077b5" data-title="Layer 0" xs="0" d="M246,30.8v194.4c0,5.7-2,10.5-6.1,14.6s-9,6.1-14.6,6.1H30.8c-5.7,0-10.5-2-14.6-6.1c-4.1-4.1-6.1-9-6.1-14.6V30.8c0-5.7,2-10.5,6.1-14.6c4.1-4.1,9-6.1,14.6-6.1h194.4c5.7,0,10.5,2,14.6,6.1C244,20.3,246,25.1,246,30.8z M88.4,72.6c0-4.4-1.4-8.1-4.4-11c-2.9-2.9-6.7-4.4-11.4-4.4S64,58.7,61,61.6c-3,2.9-4.5,6.6-4.5,11c0,4.4,1.4,8.1,4.4,11c2.9,2.9,6.6,4.4,11.2,4.4c5,0,9-1.4,12-4.4C87.1,80.6,88.5,77,88.4,72.6z M57.2,198.8h30.2V99.9H57.2V198.8z M167.7,198.8h30.4v-58.3c0-14-3.2-24.6-9.7-31.9c-6.5-7.2-14.9-10.9-25.3-10.9c-7.4,0-13.7,1.7-18.8,5c-5.1,3.3-8.9,7-11.4,11.1h-0.5l-1.4-13.9h-26.2c0.5,17.9,0.7,28.5,0.7,31.6v67.2h30.2v-56.9c0-3.3,0.3-5.9,0.9-7.8c3.2-7.7,8.3-11.6,15.6-11.6c10.2,0,15.3,7.2,15.3,21.5L167.7,198.8L167.7,198.8z"/></g></g>
</svg>