<!--?xml version="1.0" encoding="utf-8"?-->
<!-- Svg Vector Icons : http://www.onlinewebfonts.com/icon -->

<svg version="1.1" xmlns="http://www.w3.org/2000/svg" xmlns:xlink="http://www.w3.org/1999/xlink" x="0px" y="0px" viewBox="0 0 256 256" enable-background="new 0 0 256 256" xml:space="preserve">
<metadata> Svg Vector Icons : http://www.onlinewebfonts.com/icon </metadata>
<g><g><path fill="#1DA1F2" data-title="Layer 0" xs="0" d="M124.6,80.3l0.5,8.8l-8.5-1.1c-31-4.1-58.1-18.2-81.2-41.7L24.2,34.6l-2.9,8.6c-6.1,19.2-2.2,39.6,10.6,53.2c6.8,7.6,5.3,8.6-6.5,4.1c-4.1-1.4-7.7-2.5-8-2c-1.2,1.3,2.9,17.6,6.1,24.1c4.4,9,13.5,17.8,23.4,23l8.4,4.1l-9.9,0.2c-9.6,0-9.9,0.2-8.9,3.9c3.4,11.7,16.9,24.1,31.9,29.5l10.6,3.8l-9.2,5.8c-13.6,8.3-29.7,13-45.7,13.3c-7.7,0.2-14,0.9-14,1.4c0,1.8,20.8,11.9,32.9,15.8c36.3,11.7,79.5,6.6,111.8-13.3c23-14.2,46-42.4,56.8-69.8c5.8-14.6,11.6-41.2,11.6-54c0-8.3,0.5-9.3,10.1-19.2c5.6-5.8,10.9-12.1,11.9-13.8c1.7-3.4,1.5-3.4-7.2-0.4c-14.5,5.4-16.5,4.7-9.4-3.4c5.3-5.8,11.6-16.2,11.6-19.2c0-0.5-2.6,0.4-5.5,2c-3.1,1.8-9.9,4.5-15,6.1l-9.2,3.1l-8.4-5.9c-4.6-3.2-11.1-6.8-14.5-7.9c-8.7-2.5-22-2.2-29.8,0.7C136.5,36.6,123.1,57.5,124.6,80.3C124.6,80.3,123.1,57.5,124.6,80.3L124.6,80.3L124.6,80.3z"/></g></g>
</svg>