<?xml version="1.0" encoding="utf-8"?>
<!-- Svg Vector Icons : http://www.onlinewebfonts.com/icon -->
<!DOCTYPE svg PUBLIC "-//W3C//DTD SVG 1.1//EN" "http://www.w3.org/Graphics/SVG/1.1/DTD/svg11.dtd">
<svg version="1.1" xmlns="http://www.w3.org/2000/svg" xmlns:xlink="http://www.w3.org/1999/xlink" x="0px" y="0px" viewBox="0 0 256 256" enable-background="new 0 0 256 256" xml:space="preserve">
<metadata> Svg Vector Icons : http://www.onlinewebfonts.com/icon </metadata>
<g><g><g><path fill="#FFFFFF" d="M22.2,44.4c-4.8,1.2-8.8,4.8-10.9,9.5C10.2,56,10,57.1,10,60.6c0,3.8,0.1,4.5,1.5,7.2c1.8,3.6,4.7,6.5,8.4,8.2l2.6,1.2H128h105.5l2.6-1.2c3.6-1.7,6.6-4.5,8.4-8.2c1.3-2.7,1.5-3.4,1.5-7.2s-0.1-4.5-1.5-7.2c-1.8-3.6-4.7-6.5-8.4-8.2l-2.6-1.2l-104.6-0.1C47,43.9,23.9,44,22.2,44.4z"/><path fill="#FFFFFF" d="M22.2,111.8c-4.8,1.2-8.8,4.8-10.9,9.5c-1.1,2.2-1.2,3.2-1.2,6.7c0,3.8,0.1,4.5,1.5,7.2c1.8,3.6,4.7,6.5,8.4,8.2l2.6,1.2H128h105.5l2.6-1.2c3.6-1.7,6.6-4.5,8.4-8.2c1.3-2.7,1.5-3.4,1.5-7.2s-0.1-4.5-1.5-7.2c-1.8-3.6-4.7-6.5-8.4-8.2l-2.6-1.2l-104.6-0.1C47,111.3,23.9,111.4,22.2,111.8z"/><path fill="#FFFFFF" d="M22.2,179.3c-4.7,1.2-8.8,4.8-11,9.5c-1,2.2-1.2,3.2-1.2,6.7c0,3.8,0.1,4.5,1.5,7.2c1.8,3.6,4.7,6.5,8.4,8.2l2.6,1.2H128h105.5l2.6-1.2c3.6-1.7,6.6-4.5,8.4-8.2c1.3-2.7,1.5-3.4,1.5-7.2c0-3.8-0.1-4.5-1.5-7.2c-1.8-3.6-4.7-6.5-8.4-8.2l-2.6-1.2l-104.6-0.1C47,178.7,23.9,178.8,22.2,179.3z"/></g></g></g>
</svg>