<?xml version="1.0" encoding="utf-8"?>
<!-- Svg Vector Icons : http://www.onlinewebfonts.com/icon -->
<!DOCTYPE svg PUBLIC "-//W3C//DTD SVG 1.1//EN" "http://www.w3.org/Graphics/SVG/1.1/DTD/svg11.dtd">
<svg version="1.1" xmlns="http://www.w3.org/2000/svg" xmlns:xlink="http://www.w3.org/1999/xlink" x="0px" y="0px" viewBox="0 0 256 256" enable-background="new 0 0 256 256" xml:space="preserve">
<metadata> Svg Vector Icons : http://www.onlinewebfonts.com/icon </metadata>
<g><g><g><path fill="#000000" d="M53.4,10.7c-10.6,3.2-26,12-32.6,18.6C16,34,13.2,40.7,11,52.7c-1.2,6.4-1.4,21.2-0.5,28.2c4,29.8,18,58.3,43.4,88.2c11.8,13.9,31.4,32.4,46,43.4c24.2,18.2,48,29.4,69.8,32.6c19.9,2.9,38.2-0.5,51.7-9.6c3.5-2.4,13.3-11.9,17.2-16.7c5.6-7,8.2-14,7.1-19c-0.6-3-3-5.7-9.7-11.5c-19.1-16.2-40.6-28.4-50-28.4c-4.6,0-5.6,0.9-14.6,12.7c-7.7,10.2-13.3,14.5-19.3,14.9c-3.8,0.3-6.3-0.4-11.9-3.1c-17.2-8.3-40-26.4-51.6-40.9c-9.8-12.2-17.3-26.8-19.3-37.6c-1.4-7.8,0.9-11.2,14.5-21.8c7.9-6.1,12-10.2,12.7-12.9c0.7-2.5,0-6-2.5-11.3c-2.4-4.9-4.9-9.1-12.7-20.6c-3.2-4.7-7.7-11.5-10-15.1C62.8,10.6,60.2,8.6,53.4,10.7z"/></g></g></g>
</svg>