<?xml version="1.0" encoding="utf-8"?>
<!-- Svg Vector Icons : http://www.onlinewebfonts.com/icon -->
<!DOCTYPE svg PUBLIC "-//W3C//DTD SVG 1.1//EN" "http://www.w3.org/Graphics/SVG/1.1/DTD/svg11.dtd">
<svg version="1.1" xmlns="http://www.w3.org/2000/svg" xmlns:xlink="http://www.w3.org/1999/xlink" x="0px" y="0px" viewBox="0 0 256 256" enable-background="new 0 0 256 256" xml:space="preserve">
<metadata> Svg Vector Icons : http://www.onlinewebfonts.com/icon </metadata>
<g><g><g><path fill="#000000" d="M27.5,43.6c-0.8,0.2-1.9,1-2.4,1.7c-1.2,1.5-1,2.9,0.7,5.1c1.1,1.5,85.8,70.6,89.5,73.1c2.9,2,6.1,2.9,11,3.1c5.3,0.3,9.2-0.4,12.7-2.1c2.8-1.4,89.6-71.9,91.3-74.1c0.6-0.8,1.2-2,1.4-2.6c0.4-1.6-1.2-3.5-3.4-4.2C226.1,43,29.6,43,27.5,43.6z"/><path fill="#000000" d="M14.9,68.8c-1.9,0.6-3,1.4-3.8,3.1l-1,1.8v63.5v63.5l1.2,2.6c1.6,3.5,4.5,6.6,7.7,8.1l2.6,1.3H128h106.5l2.7-1.3c3.2-1.7,6-4.6,7.6-8l1.2-2.6v-63.3c0-61.1,0-63.4-0.9-65.3c-0.5-1.1-1.4-2.3-2-2.7c-1.6-1-4.6-1-6.7,0.1c-0.9,0.5-23,17.5-49,37.8c-26,20.3-48.4,37.5-49.7,38.2c-4.8,2.4-11.7,2.8-17.2,0.9c-3.3-1.2,0.5,1.7-54.1-40.9C41.7,86.5,20.8,70.4,19.9,70C18.1,69,15.9,68.5,14.9,68.8z"/></g></g></g>
</svg>